/* XPM */
static char *lyx-icon[] = {
/* columns rows colors chars-per-pixel */
"32 32 107 2",
"   c black",
".  c #000014F80000",
"X  c #00001F750000",
"o  c #043D10BB16DE",
"O  c #153207070000",
"+  c #1C72161607EB",
"@  c #1C721C721C72",
"#  c #000029F10000",
"$  c #0000346D0000",
"%  c #00003EE90000",
"&  c #087A21772DBC",
"*  c #2A630E0E0000",
"=  c #3F9515150000",
"-  c #38E32C2C0FD7",
";  c #38E338E338E3",
":  c #0CB73232449A",
">  c #000049660000",
",  c #000053E20000",
"<  c #00005E5E0000",
"1  c #043D649D16DE",
"2  c #087A60602DBC",
"3  c #087A6ADC2DBC",
"4  c #1DAC67672DBC",
"5  c #2A634CF70000",
"6  c #2A6357740000",
"7  c #3F9553FE0000",
"8  c #38E375920FD7",
"9  c #10F442ED5B78",
"0  c #153253A97255",
"q  c #0CB7711B449A",
"w  c #15327D9A7255",
"e  c #54C61C1C0000",
"r  c #480F368C2DBC",
"t  c #69F823230000",
"y  c #7F292A2A0000",
"u  c #7138388E1C72",
"i  c #5555424217C2",
"p  c #54C650890000",
"a  c #415E4DA33D93",
"s  c #7F29499F0000",
"d  c #71C758581FAE",
"f  c #555555555555",
"g  c #508958025B78",
"h  c #617E4E4E449A",
"j  c #69F86FC57255",
"k  c #196F64648933",
"l  c #1DAC751FA011",
"z  c #5DCF76CC8311",
"x  c #590379798933",
"c  c #196F83D98933",
"v  c #1DAC8A18A011",
"b  c #21E99057B6EF",
"n  c #371A8CE2B6EF",
"m  c #26269696CDCD",
"M  c #480F832DA011",
"N  c #67849797990A",
"B  c #7A41933D9F82",
"V  c #568FAE03D8F5",
"C  c #6EC4B9B9DE88",
"Z  c #945B31310000",
"A  c #A98C38380000",
"S  c #BEBE3F3F0000",
"D  c #945B46290000",
"F  c #9CD552A82DBC",
"G  c #8DAA67BD0FD7",
"H  c #8E386E6E2799",
"J  c #8BE15C5C449A",
"K  c #8E387B2550A6",
"L  c #C5FE4E4E07EB",
"P  c #CD3E5D5D0FD7",
"I  c #D47E6C6C17C2",
"U  c #DBBE7B7B1FAE",
"Y  c #CD3E6A1438E3",
"T  c #AAAA84842F85",
"R  c #AAAAA3F92F85",
"E  c #AEE7953F4663",
"W  c #B761B6B6741E",
"Q  c #C71C9A9A3770",
"!  c #E2FF8A8A2799",
"~  c #EA3F99992F85",
"^  c #E38DB0B03F5C",
"/  c #E38DBB2C3F5C",
"(  c #F17FA8A83770",
")  c #F8BFB7B73F5C",
"_  c #FFFFC6C64747",
"`  c #FFFFCD225BCD",
"'  c #FFFFD37D7053",
"]  c #8E388E388E38",
"[  c #AAAAAAAAAAAA",
"{  c #AEE7BB65C188",
"}  c #B761C36D9D2B",
"|  c #86F8C56FE41C",
" . c #B761DCDCEF44",
".. c #C71CBA649E0F",
"X. c #EA3FBFBFAAAA",
"o. c #FFFFD9D984DA",
"O. c #FFFFE0359960",
"+. c #E7CADADAA852",
"@. c #FFFFE690ADE6",
"#. c #C71CC71CC71C",
"$. c #FFFFECECC26C",
"%. c #FFFFF348D6F3",
"&. c #E7CAF449FA6B",
"*. c #F8BFEA94E38D",
"=. c #FFFFF9A3EB79",
"-. c gray100",
";. c None",
/* pixels */
";.;.;.;.;.;.;.;.        ;.;.;.;.;.;.;.;.;.;.;.;.;.;.;.;.;.;.;.;.",
";.;.;.;.;.;.;.          ;.;.;.;.;.;.;.;.;.;.;.;.;.;.;.;.;.;.;.;.",
";.;.;.;.;.;.              ;.;.;.;.;.;.;.;.;.0 : ;.;.;.;.= S S Z ",
";.;.;.;.;.;.              ;.;.;.;.;.;.;.;.;.m : ;.d d d = S S = ",
";.;.;.;.;.;.          ;.;.;.;.;.;.;.;.;.;.;.: m o E _ _ ~ S y ;.",
";.;.;.;.;.;.          ;.;.;.;.;.;.;.;.;.;.;.: m l W _ _ P S y ;.",
";.;.;.;.;.            ;.;.;.;.;.;.;.;.;.;.;.;.9 k a _ i ;.;.y * ",
";.;.;.;.;.            ;.;.;.;.;.[ [ [ ; ;.;.;.;.;.T Q + ;.;.;.;.",
";.;.;.;.;.          o : : : z -.O._ Q _ #.@ ;.;.;.;.;.;.;.;.;.;.",
";.;.;.;.;.      ;.;.{  .| m C @._ O.+ i @.f ;.;.;.;.;.;.;.;.;.;.",
";.;.;.;.;.    & ] %._ _ ' =.-.o.; [     Q i ;.;.;.;.;.;.;.;.;.;.",
";.;.;.;.;.  ;.B %.` ' K H ' -.o.        Q i ;.;.;.;.;.;.;.e y y ",
";.;.;.;.;.;.m  ._ i #.f   T o.o.T       o.f ;.* = Z S S S S y ;.",
";.;.;.;.;.9 m  ._ i @ @   T o.%.^ T T T ..u y A S S S S S t * ;.",
";.;.;.;.;.k m  .$.H       T } | *.X.S S S S S S S S S Z         ",
";.;.;.;.;.k m  .=.' d   - ^  .j Y S S S S S S S S S Z O       ;.",
";.;.;.;.;.k m m V &.o.o.+. .M J y y Z S S S S S A *       ;.;.;.",
";.;.;.;.;.k m m m V -.-.V m m m k k O = = Z S S *       ;.;.;.;.",
";.;.;.. < < q m m m m m m m m m m m m m c < X X     ;.;.;.;.;.;.",
";.;.. , < < v m m m m m m m m m m m m m c < < <   ;.;.;.;.;.;.;.",
"X > < < < p v m m m m m m m x S F x x n k % < < < $ . ;.;.;.;.;.",
"< < < < < < 1 q w m m m m m N ~ S S S F 2 , < < < < % ;.;.;.;.;.",
"D 7 L L I _ 7 4 3 < < < 3 c G R < < < < 5 % % % % % # ;.;.;.;.;.",
"S S I ( ( _ S r b c < < < < < < < < s s A * ;.;.;.;.;.;.;.;.;.;.",
"P ) I ( _ _ ~ S S g l w 6 < < 8 _ _ L I S = ;.;.;.;.;.;.;.;.;.;.",
"S P _ _ _ _ ~ S S = o h s < 8 / _ _ ( _ S = ;.;.;.;.;.;.;.;.;.;.",
"Z S S U _ _ _ I S S = S S S _ _ ) ~ S S y ;.;.;.;.;.;.;.;.;.;.;.",
"O = S S ! _ _ I S S = S S U _ _ P S S S * ;.;.;.;.;.;.;.;.;.;.;.",
";.;.;.;.Z S S S S Z = S S S S S y * ;.;.;.;.;.;.;.;.;.;.;.;.;.;.",
";.;.;.;.O Z S S S = O Z S S S S ;.;.;.;.;.;.;.;.;.;.;.;.;.;.;.;.",
";.;.;.;.;.;.;.;.;.;.;.;.;.;.;.;.;.;.;.;.;.;.;.;.;.;.;.;.;.;.;.;.",
";.;.;.;.;.;.;.;.;.;.;.;.;.;.;.;.;.;.;.;.;.;.;.;.;.;.;.;.;.;.;.;."
};
